<?xml version="1.0" encoding="UTF-8"?>
<svg id="Capa_1" data-name="Capa 1" xmlns="http://www.w3.org/2000/svg" viewBox="0 0 512 512" width="256" height="256">
  <g>
    <path fill="#64e4bc" d="M385.63,239.38c-1.79,0-3.52-.96-4.42-2.65l-91.22-171.04c-1.89-3.55-5.56-5.86-9.57-6.04l-56.37-.18c-2.76,0-4.99-2.25-4.98-5.02,0-2.76,2.25-4.98,5-4.98h.02l56.46.18c.06,0,.12,0,.18,0,7.59.29,14.52,4.64,18.09,11.33l91.22,171.04c1.3,2.44.38,5.46-2.06,6.76-.75.4-1.56.59-2.35.59Z"/>
    <path fill="#64e4bc" d="M399.82,316.76c-45.4,0-82.33-36.93-82.33-82.33,0-20.33,7.47-39.84,21.03-54.96,2.03-2.26,5.5-2.45,7.77-.42,2.26,2.03,2.45,5.5.42,7.77-11.75,13.1-18.22,30.01-18.22,47.62,0,39.33,32,71.33,71.33,71.33s71.33-32,71.33-71.33-32-71.33-71.33-71.33c-11.31,0-22.13,2.57-32.14,7.63-2.71,1.37-6.02.28-7.39-2.43-1.37-2.71-.28-6.02,2.43-7.39,11.57-5.85,24.05-8.82,37.11-8.82,45.4,0,82.33,36.93,82.33,82.33s-36.93,82.33-82.33,82.33Z"/>
    <path fill="#64e4bc" d="M101.7,311.6c-43.72,0-79.28-35.57-79.28-79.28s35.57-79.28,79.28-79.28c29.9,0,56.95,16.54,70.6,43.17,1.38,2.7.32,6.02-2.39,7.4-2.7,1.38-6.02.32-7.4-2.39-11.75-22.94-35.06-37.19-60.81-37.19-37.65,0-68.28,30.63-68.28,68.28s30.63,68.28,68.28,68.28c23.89,0,46.36-12.75,58.64-33.28,1.56-2.61,4.94-3.46,7.54-1.9,2.61,1.56,3.46,4.94,1.9,7.54-14.26,23.83-40.34,38.63-68.08,38.63Z"/>
    <path fill="#64e4bc" d="M106.59,225.56c-3.03,0-5.5-2.46-5.5-5.49,0-3.04,2.46-5.5,5.49-5.51,1.02,0,102.47-.14,110.07-.19.21,0,20.49-.32,21-16.8.09-2.91-.55-5.04-1.97-6.52-3.18-3.31-9.91-3.38-12.79-3.42-.45,0-.82,0-1.13-.02-1.98-.07-3.78-1.21-4.69-2.97-.91-1.76-.8-3.88.29-5.54l13.88-21.15h-16.59c-3.04,0-5.5-2.46-5.5-5.5s2.46-5.5,5.5-5.5h24.5c2.48,0,4.75,1.35,5.92,3.53s1.06,4.82-.29,6.89l-13.12,20.01c4.06.8,8.53,2.48,11.96,6.06,3.52,3.67,5.21,8.53,5.03,14.47-.61,20-19.42,27.39-31.92,27.47-7.63.05-109.1.19-110.13.19h0ZM239.16,157.95h0,0Z"/>
    <path fill="#64e4bc" d="M180.41,256.56c-30.73,0-62.16-.38-64.53-.41-3.04-.04-5.47-2.53-5.43-5.57.04-3.01,2.49-5.43,5.5-5.43h.07c36.35.45,108.16.87,120.98-.69.69-.3,5.77-3.07,20.11-22.85,8.9-12.28,16.43-24.26,18.31-27.66-.13-.12-.25-.2-.37-.34l-6.82-7.65c-1.72-1.93-1.87-4.79-.35-6.89l14.95-20.63h-19.32c-3.04,0-5.5-2.46-5.5-5.5s2.46-5.5,5.5-5.5h26.27c2.79,0,5.32,1.54,6.61,4.01s1.1,5.43-.5,7.71l-16.51,22.78,3.73,4.18c3.53,3.45,4.33,8.8,1.94,13.14-2.54,4.6-11.05,17.88-19.81,29.87-18.37,25.14-23.95,25.86-26.63,26.21-7.34.95-32.52,1.21-58.2,1.21ZM236.92,244.5h0ZM289.78,158.44h0,0Z"/>
    <path fill="#64e4bc" d="M362.22,128.98c-11.75,0-21.3-9.56-21.3-21.3s9.56-21.3,21.3-21.3,21.3,9.55,21.3,21.3-9.56,21.3-21.3,21.3ZM362.22,94.37c-7.33,0-13.3,5.97-13.3,13.3s5.97,13.3,13.3,13.3,13.3-5.97,13.3-13.3-5.97-13.3-13.3-13.3Z"/>
    <path fill="#64e4bc" d="M181.87,147.92c-20.58,0-33.4-11.15-40.43-17.26-.6-.52-1.16-1.01-1.67-1.44-1.32-1.12-2.69-2.15-3.7-2.16l-49.66-.16c-3.04,0-5.49-2.48-5.48-5.52,0-3.03,2.47-5.48,5.5-5.48h.02l49.66.16c5.15.02,8.94,3.21,10.76,4.75.55.46,1.15.98,1.79,1.55,6.62,5.76,17.69,15.39,35.54,14.51,16.83-.83,26.36-12.65,32.07-21.47,3.08-4.76,8.28-7.63,13.91-7.67l63.31-.46c3.06-.05,5.52,2.42,5.54,5.46.02,3.04-2.42,5.52-5.46,5.54l-63.31.46c-1.91.01-3.69,1-4.75,2.65-4.05,6.25-16.36,25.27-40.77,26.48-.97.05-1.93.07-2.87.07Z"/>
    <!-- Texto "PARCHE" -->
    <text x="50%" y="410" text-anchor="middle" font-family="Poppins, Arial, sans-serif" font-size="80" fill="#64e4bc" font-weight="bold" letter-spacing="8">PARCHE</text>
  </g>
</svg>