<?xml version="1.0" encoding="UTF-8"?>
<svg id="Capa_1" xmlns="http://www.w3.org/2000/svg" version="1.1" viewBox="0 0 512 512">
  <!-- Generator: Adobe Illustrator 29.5.1, SVG Export Plug-In . SVG Version: 2.1.0 Build 141)  -->
  <defs>
    <style>
      .st0 {
        fill: #25FF7A;
      }
    </style>
  </defs>
  <path class="st0" d="M391.88,318.73c-1.83,0-3.6-.98-4.53-2.71l-93.5-175.31c-1.94-3.64-5.7-6.01-9.81-6.19l-57.77-.18c-2.83,0-5.12-2.31-5.11-5.14,0-2.82,2.3-5.11,5.12-5.11h.02l57.87.18h.18c7.78.3,14.88,4.75,18.54,11.62l93.5,175.31c1.33,2.5.39,5.6-2.11,6.93-.77.41-1.59.6-2.41.6h0Z"/>
  <path class="st0" d="M406.43,398.04c-46.53,0-84.39-37.86-84.39-84.39,0-20.83,7.65-40.84,21.55-56.33,2.08-2.32,5.64-2.51,7.96-.43,2.32,2.08,2.51,5.64.43,7.96-12.04,13.42-18.67,30.75-18.67,48.8,0,40.32,32.8,73.11,73.11,73.11s73.11-32.8,73.11-73.11-32.8-73.11-73.11-73.11c-11.59,0-22.68,2.63-32.95,7.82-2.78,1.4-6.17.29-7.57-2.49s-.29-6.17,2.49-7.58c11.86-6,24.65-9.04,38.03-9.04,46.53,0,84.39,37.86,84.39,84.39s-37.86,84.39-84.39,84.39h.01Z"/>
  <path class="st0" d="M100.87,392.76c-44.81,0-81.26-36.45-81.26-81.26s36.45-81.26,81.26-81.26c30.65,0,58.38,16.96,72.36,44.25,1.42,2.77.32,6.17-2.45,7.59-2.77,1.42-6.17.33-7.59-2.45-12.05-23.51-35.93-38.12-62.33-38.12-38.59,0-69.98,31.4-69.98,69.98s31.39,69.99,69.98,69.99c24.48,0,47.51-13.07,60.1-34.11,1.6-2.67,5.06-3.54,7.73-1.94s3.54,5.06,1.94,7.73c-14.61,24.42-41.35,39.59-69.78,39.59h.02Z"/>
  <path class="st0" d="M105.89,304.57c-3.11,0-5.63-2.52-5.64-5.63,0-3.11,2.52-5.64,5.63-5.65,1.05,0,105.03-.15,112.82-.2.21,0,21.01-.33,21.52-17.22.09-2.98-.57-5.17-2.02-6.68-3.26-3.39-10.16-3.47-13.1-3.5-.46,0-.85-.01-1.15-.02-2.03-.07-3.87-1.24-4.81-3.04-.94-1.81-.82-3.98.29-5.68l14.22-21.68h-17.01c-3.11,0-5.64-2.52-5.64-5.64s2.52-5.64,5.64-5.64h25.11c2.54,0,4.86,1.39,6.07,3.62s1.09,4.94-.3,7.06l-13.45,20.51c4.16.82,8.75,2.54,12.26,6.21,3.6,3.76,5.34,8.75,5.15,14.83-.63,20.5-19.91,28.07-32.72,28.15-7.82.05-111.83.19-112.88.2h.01ZM241.76,235.27h0,0Z"/>
  <path class="st0" d="M181.54,336.34c-31.5,0-63.71-.39-66.14-.42-3.11-.04-5.61-2.59-5.57-5.71.04-3.09,2.55-5.57,5.64-5.57h.07c37.26.46,110.86.89,124-.71.71-.31,5.92-3.14,20.61-23.42,9.13-12.59,16.84-24.87,18.77-28.35-.13-.12-.26-.38-.38-.34l-7-7.84c-1.76-1.98-1.91-4.91-.36-7.06l15.33-21.15h-19.8c-3.11,0-5.64-2.52-5.64-5.64s2.52-5.64,5.64-5.64h26.93c2.86,0,5.45,1.57,6.77,4.11s1.12,5.57-.52,7.91l-16.92,23.35,3.82,4.29c3.62,3.53,4.44,9.02,1.99,13.47-2.6,4.71-11.33,18.33-20.31,30.61-18.82,25.77-24.55,26.51-27.3,26.87-7.52.97-33.34,1.25-59.65,1.25h.02ZM239.46,323.97h0ZM293.64,235.77h.01-.01Z"/>
  <path class="st0" d="M367.89,205.57c-12.04,0-21.83-9.79-21.83-21.83s9.79-21.83,21.83-21.83,21.83,9.79,21.83,21.83-9.79,21.83-21.83,21.83ZM367.89,170.11c-7.52,0-13.63,6.11-13.63,13.63s6.12,13.63,13.63,13.63,13.63-6.12,13.63-13.63-6.12-13.63-13.63-13.63Z"/>
  <path class="st0" d="M183.04,224.99c-21.1,0-34.24-11.43-41.44-17.69-.62-.54-1.19-1.03-1.71-1.47-1.36-1.15-2.76-2.21-3.79-2.21l-50.89-.16c-3.11,0-5.63-2.54-5.62-5.66.01-3.11,2.53-5.62,5.64-5.62h.02l50.89.16c5.28.02,9.16,3.29,11.03,4.87.56.48,1.18,1.01,1.84,1.58,6.78,5.9,18.14,15.78,36.43,14.87,17.25-.85,27.02-12.97,32.88-22.01,3.16-4.88,8.49-7.82,14.25-7.86l64.89-.47c3.14-.05,5.66,2.48,5.68,5.6.02,3.11-2.48,5.66-5.6,5.68l-64.89.47c-1.96,0-3.78,1.03-4.87,2.72-4.15,6.41-16.77,25.9-41.78,27.14-1,.05-1.98.07-2.94.07h-.02Z"/>
</svg>